<svg width="14" height="14" viewBox="0 0 14 14" fill="none" xmlns="http://www.w3.org/2000/svg">
<g clip-path="url(#clip0_5561_3968)">
<path d="M13 4.4024C13 5.26731 12.286 5.96928 11.4036 5.96928C10.6748 5.96928 10.0596 5.49109 9.8692 4.83426C9.8288 4.69764 9.8056 4.55198 9.8056 4.4024C9.8056 4.28854 9.8176 4.17861 9.8408 4.07261C9.9948 3.36396 10.6356 2.83276 11.4036 2.83276C11.9176 2.83276 12.374 3.07107 12.6668 3.44091C12.8112 3.62386 12.9136 3.83822 12.9652 4.07261C12.988 4.17861 13.0004 4.28854 13.0004 4.4024H13Z" fill="#F9C641"/>
<path d="M12.756 7.44857C12.6684 9.70997 11.2584 11.6373 9.2616 12.5061C8.974 12.6302 8.6752 12.7346 8.3648 12.8135C8.3576 12.8163 8.3504 12.8178 8.342 12.819C8.2156 12.8516 8.0876 12.8799 7.9568 12.9022C7.9124 12.9109 7.8664 12.9179 7.8204 12.925C7.684 12.9478 7.546 12.9647 7.4048 12.9772C7.2324 12.9925 7.0584 13 6.8816 13H6.8744C6.7912 13 6.7076 12.9984 6.6256 12.9945C6.6128 12.9945 6.5984 12.9945 6.5852 12.9929C6.5508 12.9914 6.5176 12.9886 6.4844 12.9874C6.2744 12.9733 6.066 12.9494 5.8636 12.914C5.7212 12.8901 5.582 12.8618 5.444 12.828C5.352 12.8041 5.2616 12.7801 5.1708 12.7534C5.0356 12.7126 4.9004 12.6686 4.7712 12.618C4.6388 12.5685 4.5096 12.5151 4.3844 12.457C4.1488 12.3483 3.9232 12.2258 3.706 12.0903C2.1356 11.101 1.076 9.39942 1 7.44857V3.21472H5.1108L4.5848 2.69844L5.2964 2L7.6952 4.35602L5.2964 6.71204L4.6884 6.11528L4.5848 6.0136L4.98 5.62571H3.7064V7.44857C3.7064 9.16818 5.1264 10.5623 6.8772 10.5623C8.628 10.5623 10.0496 9.16857 10.0496 7.44857H12.756Z" fill="#3234DA"/>
</g>
<defs>
<clipPath id="clip0_5561_3968">
<rect width="12" height="11" fill="white" transform="translate(1 2)"/>
</clipPath>
</defs>
</svg>
