<svg width="281" height="110" viewBox="0 0 281 110" fill="none" xmlns="http://www.w3.org/2000/svg">
<g clip-path="url(#clip0_35_1317)">
<path d="M58.0356 21.5627C58.0356 18.0535 60.44 15.457 63.7949 15.457C67.1497 15.457 69.5541 18.0535 69.5541 21.5627C69.5541 25.0719 67.1497 27.5936 63.7949 27.5936C60.44 27.5936 58.0356 25.0758 58.0356 21.5627ZM59.4219 32.4757H68.0964V70.1797H59.4219V32.4757Z" fill="black"/>
<path d="M106.397 48.2749C106.397 36.9016 112.81 31.4844 122.214 31.4844C131.617 31.4844 137.959 36.9016 137.959 48.4283V48.6565H129.359V48.2749C129.359 42.1693 126.444 39.9544 122.217 39.9544C117.991 39.9544 115.076 42.1693 115.076 48.2749V70.1797H106.401V48.2749H106.397Z" fill="black"/>
<path d="M142.083 51.7093C142.083 39.7262 150.1 31.4844 161.544 31.4844C172.987 31.4844 180.711 39.498 180.711 51.6346V70.1836H172.765V62.7798C170.579 68.3504 165.695 71.175 160.011 71.175C151.265 71.175 142.08 64.613 142.08 51.7133L142.083 51.7093ZM172.04 51.3277C172.04 44.6871 167.814 39.9544 161.472 39.9544C155.131 39.9544 150.829 44.6871 150.829 51.3277C150.829 57.9684 155.131 62.7011 161.472 62.7011C167.814 62.7011 172.04 57.9684 172.04 51.3277Z" fill="black"/>
<path d="M184.551 32.4756H194.026L204.011 61.859L213.997 32.4756H223.254L209.113 70.1795H198.692L184.551 32.4756Z" fill="black"/>
<path d="M225.854 51.3277C225.854 39.8796 233.871 31.4844 245.243 31.4844C256.614 31.4844 264.485 39.8796 264.485 51.3277V54.534H234.968C236.132 60.0298 240.141 62.9292 245.246 62.9292C249.108 62.9292 251.952 61.7844 253.774 59.3414H263.031C260.334 66.5171 253.774 71.1711 245.246 71.1711C233.874 71.1711 225.857 62.7758 225.857 51.3277H225.854ZM255.3 47.2835C253.913 42.2479 249.98 39.7262 245.243 39.7262C240.505 39.7262 236.568 42.3227 235.186 47.2835H255.303H255.3Z" fill="black"/>
<path d="M272.329 15.9922H281.004V70.1837H272.329V15.9922Z" fill="black"/>
<path d="M52.6445 49.7854V49.0616H52.6182C52.0848 37.94 43.1848 29.0097 32.4741 29.0097C28.3115 29.0097 24.2353 30.3709 20.8542 32.869C20.8317 29.8831 20.8091 26.8971 20.7828 23.9112C20.7603 20.941 20.8467 18.0612 20.039 15.1854C19.4003 12.9037 18.386 10.7439 17.056 8.81227C14.4187 4.97657 10.5605 2.11652 6.21756 0.810414C4.42179 0.27145 2.5584 0 0.691258 0H0V9.06405H0.691258C7.04031 9.06405 12.206 14.4734 12.206 21.1219V50.5093H12.3111V50.8555H12.3337C12.8672 61.977 21.7633 70.9073 32.4741 70.9073C43.1848 70.9073 52.0848 61.977 52.6182 50.8555H52.6445V50.1316C52.6445 50.0726 52.6445 50.0175 52.6445 49.9585C52.6445 49.8995 52.6445 49.8444 52.6445 49.7854ZM43.985 49.7854C43.985 56.434 38.8231 61.8433 32.4778 61.8433C26.1325 61.8433 21.1961 56.7526 20.9707 50.23V50.1316C20.9707 43.4831 26.1325 38.0737 32.4778 38.0737C38.8231 38.0737 43.7183 43.1211 43.985 49.6045V49.7854Z" fill="black"/>
<path d="M115.072 91.0186C114.79 98.749 110.271 105.339 103.873 108.313C102.952 108.738 101.994 109.096 100.999 109.363C100.976 109.371 100.954 109.379 100.924 109.383C100.518 109.493 100.109 109.591 99.6877 109.666C99.545 109.694 99.3985 109.717 99.2519 109.745C98.8162 109.823 98.3728 109.878 97.922 109.922C97.3698 109.973 96.8138 110 96.2465 110H96.2239C95.9572 110 95.6905 109.996 95.4275 109.981C95.3862 109.981 95.3411 109.981 95.2998 109.977C95.1908 109.973 95.0819 109.961 94.9767 109.957C94.3042 109.91 93.6355 109.827 92.9855 109.705C92.531 109.623 92.0839 109.528 91.6406 109.41C91.3476 109.328 91.0545 109.245 90.7653 109.155C90.3332 109.013 89.9012 108.863 89.4842 108.69C89.0597 108.521 88.6464 108.336 88.2444 108.14C82.0344 105.095 77.6727 98.6074 77.3984 91.0146H86.073C86.073 96.8961 90.6225 101.66 96.2352 101.66C101.848 101.66 106.401 96.8961 106.401 91.0146H115.076L115.072 91.0186Z" fill="#3234DA"/>
<path d="M97.0352 34.832V34.8792H97.0802L97.0352 34.832Z" fill="black"/>
<path d="M103.298 36.6107L102.671 37.2676L95.6039 44.6637L93.3235 42.2757L94.6422 40.8948H86.0691V78.9607H77.3945V19.293H86.0691V32.653H94.954L93.3235 30.9417L95.6039 28.5577L103.298 36.6107Z" fill="black"/>
<path d="M115.85 80.6043C115.85 83.5627 113.562 85.9625 110.733 85.9625C108.396 85.9625 106.424 84.3259 105.815 82.0796C105.684 81.6114 105.612 81.1158 105.612 80.6043C105.612 80.2149 105.65 79.8372 105.725 79.4753C106.217 77.0519 108.272 75.2383 110.733 75.2383C112.382 75.2383 113.844 76.0526 114.779 77.3155C115.241 77.941 115.572 78.6727 115.733 79.4753C115.808 79.8372 115.846 80.2149 115.846 80.6043H115.85Z" fill="#3234DA"/>
</g>
<defs>
<clipPath id="clip0_35_1317">
<rect width="281" height="110" fill="white"/>
</clipPath>
</defs>
</svg>
